# xmcd
#
# Track frame offsets:
#       150
#       17492
#       37652
#       52425
#       77670
#       93500
#       116882
#       135382
#       148185
#       165522
#       175432
#       187540
#       202925
#       213402
#       227640
#       246245
#       266230
#       284270
#
# Disc length: 4274 seconds
#
# Revision: 0
# Processed by: cddbd v1.4PL0 Copyright (c) Steve Scherf et al.
# Submitted via: CD-DA_X-Tractor v0.21
#
DISCID=fc10b012
DTITLE=Various Artist - Music Jimmy
DYEAR=1900
DGENRE=Blues
TTITLE0=La Grange
TTITLE1=Me And Bobby McGee
TTITLE2=69 Année Erotic
TTITLE3=Josephine
TTITLE4=Dirty Blud
TTITLE5=Bad Love
TTITLE6=Hey Jude
TTITLE7=Pas Cette Chanson
TTITLE8=Rainy Night In Georgia
TTITLE9=Menphis
TTITLE10=Mr Pitiful
TTITLE11=Love Is In The Air
TTITLE12=Lady Madonna
TTITLE13=Jealous Guy
TTITLE14=Sweet Was My Rose
TTITLE15=Owner Of A Lonely Heart
TTITLE16=Spirit In The Sky
TTITLE17=Life's Been Good
EXTD=
EXTT0=
EXTT1=
EXTT2=
EXTT3=
EXTT4=
EXTT5=
EXTT6=
EXTT7=
EXTT8=
EXTT9=
EXTT10=
EXTT11=
EXTT12=
EXTT13=
EXTT14=
EXTT15=
EXTT16=
EXTT17=
PLAYORDER=
